<?xml version="1.0"?>
<svg xmlns="http://www.w3.org/2000/svg" xmlns:xlink="http://www.w3.org/1999/xlink" version="1.1" viewBox="0 0 252 252" width="64px" height="64px"><g fill="none" fill-rule="nonzero" stroke="none" stroke-width="1" stroke-linecap="butt" stroke-linejoin="miter" stroke-miterlimit="10" stroke-dasharray="" stroke-dashoffset="0" font-family="none" font-weight="none" font-size="none" text-anchor="none" style="mix-blend-mode: normal"><path d="M0,252v-252h252v252z" fill="none"/><g id="original-icon" fill="#000000"><circle cx="32" cy="10" transform="scale(3.9375,3.9375)" r="4"/><path d="M126,59.0625c-10.85569,0 -19.6875,-8.83181 -19.6875,-19.6875c0,-10.85569 8.83181,-19.6875 19.6875,-19.6875c10.85569,0 19.6875,8.83181 19.6875,19.6875c0,10.85569 -8.83181,19.6875 -19.6875,19.6875zM126,27.5625c-6.51262,0 -11.8125,5.29988 -11.8125,11.8125c0,6.51263 5.29988,11.8125 11.8125,11.8125c6.51262,0 11.8125,-5.29987 11.8125,-11.8125c0,-6.51262 -5.29987,-11.8125 -11.8125,-11.8125z"/><path d="M110.25,70.875c0,8.69794 7.05206,15.75 15.75,15.75c8.69794,0 15.75,-7.05206 15.75,-15.75"/><path d="M149.625,66.9375h-47.25c-10.85569,0 -19.6875,8.83181 -19.6875,19.6875v63c0,6.51262 5.29988,11.8125 11.8125,11.8125c1.386,0 2.70113,-0.2835 3.9375,-0.7245v51.912c0,8.68613 7.06387,15.75 15.75,15.75c4.72894,0 8.92237,-2.13413 11.8125,-5.44162c2.89013,3.3075 7.08356,5.44162 11.8125,5.44162c8.68613,0 15.75,-7.06387 15.75,-15.75v-51.912c1.23638,0.441 2.5515,0.7245 3.9375,0.7245c6.51262,0 11.8125,-5.29988 11.8125,-11.8125v-63c0,-10.85569 -8.83181,-19.6875 -19.6875,-19.6875zM145.6875,212.625c0,4.34306 -3.53194,7.875 -7.875,7.875c-4.34306,0 -7.875,-3.53194 -7.875,-7.875v-47.25v-3.9375h-7.875v3.9375v47.25c0,4.34306 -3.53194,7.875 -7.875,7.875c-4.34306,0 -7.875,-3.53194 -7.875,-7.875v-63v-3.9375h39.375v3.9375zM161.4375,149.625c0,2.16956 -1.764,3.9375 -3.9375,3.9375c-2.1735,0 -3.9375,-1.76794 -3.9375,-3.9375v-47.25h-7.875v35.4375h-39.375v-35.4375h-7.875v47.25c0,2.16956 -1.764,3.9375 -3.9375,3.9375c-2.1735,0 -3.9375,-1.76794 -3.9375,-3.9375v-63c0,-6.51262 5.29988,-11.8125 11.8125,-11.8125h47.25c6.51262,0 11.8125,5.29988 11.8125,11.8125z"/></g></g></svg>
